<svg width="619" height="425" viewBox="0 0 619 425" fill="none" xmlns="http://www.w3.org/2000/svg">
<path d="M49.28 65V63.08L50.624 62.952C51.776 62.824 52.672 62.5893 53.312 62.248C53.952 61.9067 54.4213 61.352 54.72 60.584C55.0613 59.816 55.2747 58.7707 55.36 57.448L57.792 27.752C57.9627 25.7893 57.7067 24.4453 57.024 23.72C56.384 22.952 54.9973 22.4613 52.864 22.248L51.52 22.12V20.2H64.064L78.528 58.344H76.8L90.432 20.2H102.592V22.12L101.248 22.248C99.9253 22.376 98.9227 22.6107 98.24 22.952C97.6 23.2933 97.1947 23.848 97.024 24.616C96.8533 25.3413 96.832 26.3867 96.96 27.752L99.584 56.616C99.712 58.1093 99.9467 59.304 100.288 60.2C100.672 61.0533 101.227 61.6933 101.952 62.12C102.677 62.504 103.659 62.7813 104.896 62.952L106.368 63.08V65H88V63.08L90.112 62.888C91.776 62.7173 92.8427 62.2267 93.312 61.416C93.7813 60.5627 93.9093 58.9627 93.696 56.616L90.816 24.04L91.712 24.232L77.12 65H75.008L60.416 26.92L58.432 57.448C58.3467 58.8133 58.432 59.9013 58.688 60.712C58.9867 61.48 59.52 62.0347 60.288 62.376C61.0987 62.7173 62.2293 62.9307 63.68 63.016L65.024 63.08V65H49.28ZM104.596 80.808V79.848L115.924 63.528L104.788 38.632C104.106 37.1387 103.38 36.008 102.612 35.24C101.887 34.472 101.076 34.0027 100.18 33.832L99.0925 33.64V31.72H114.964V33.64L113.364 33.768C110.335 34.024 109.46 35.6453 110.74 38.632L119.573 59.432L117.716 59.496L125.46 39.976C126.314 37.8853 126.484 36.3707 125.972 35.432C125.503 34.4507 124.522 33.896 123.028 33.768L121.684 33.64V31.72H134.997V33.64L133.653 33.832C132.927 33.9173 132.308 34.1307 131.797 34.472C131.285 34.8133 130.772 35.3893 130.26 36.2C129.791 37.0107 129.236 38.184 128.597 39.72L111.188 80.808H104.596ZM135.783 65V63.08L138.407 62.824C139.815 62.696 140.796 62.312 141.351 61.672C141.905 61.032 142.183 59.9653 142.183 58.472V26.728C142.183 25.2347 141.905 24.168 141.351 23.528C140.796 22.888 139.815 22.504 138.407 22.376L135.783 22.12V20.2H156.263C161.639 20.2 166.204 21.032 169.959 22.696C173.756 24.3173 176.636 26.7493 178.599 29.992C180.604 33.192 181.607 37.1813 181.607 41.96C181.607 46.696 180.54 50.792 178.407 54.248C176.316 57.6613 173.372 60.3067 169.575 62.184C165.82 64.0613 161.468 65 156.519 65H135.783ZM156.519 62.44C162.321 62.44 166.865 60.84 170.151 57.64C173.479 54.44 175.143 49.8107 175.143 43.752C175.143 39.4427 174.311 35.7093 172.647 32.552C170.983 29.352 168.679 26.8773 165.735 25.128C162.833 23.3787 159.527 22.504 155.815 22.504C154.705 22.504 153.575 22.5467 152.423 22.632C151.313 22.6747 149.905 22.76 148.199 22.888V58.664C148.199 59.7307 148.412 60.5413 148.839 61.096C149.265 61.608 150.076 61.9707 151.271 62.184C152.465 62.3547 154.215 62.44 156.519 62.44ZM195.949 65.64C192.792 65.64 190.019 64.9147 187.629 63.464C185.24 61.9707 183.384 59.9653 182.061 57.448C180.781 54.9307 180.141 52.0933 180.141 48.936C180.141 45.48 180.888 42.408 182.381 39.72C183.917 37.032 185.965 34.92 188.525 33.384C191.085 31.848 193.901 31.08 196.973 31.08C200.344 31.08 203.053 32.04 205.101 33.96C207.149 35.88 208.173 38.6747 208.173 42.344C208.173 42.6 208.173 42.8773 208.173 43.176C208.173 43.432 208.131 43.7947 208.045 44.264L207.917 45.16H184.941V42.728H201.837C201.965 41.8747 202.029 41.0853 202.029 40.36C202.029 38.2267 201.475 36.5627 200.365 35.368C199.256 34.1733 197.656 33.576 195.565 33.576C192.707 33.576 190.381 34.7067 188.589 36.968C186.84 39.2293 185.965 42.2587 185.965 46.056C185.965 48.9147 186.477 51.496 187.501 53.8C188.568 56.0613 190.061 57.8533 191.981 59.176C193.944 60.456 196.248 61.096 198.893 61.096C200.387 61.096 201.837 60.84 203.245 60.328C204.653 59.816 206.147 58.9627 207.725 57.768L209.005 58.984C206.957 61.3307 204.888 63.0373 202.797 64.104C200.707 65.128 198.424 65.64 195.949 65.64ZM217.236 65.64C215.615 65.64 213.887 65.448 212.052 65.064C210.26 64.68 208.788 64.168 207.636 63.528V54.888H209.492C209.961 57.8747 210.985 60.0293 212.564 61.352C214.185 62.632 216.02 63.272 218.068 63.272C220.031 63.272 221.567 62.76 222.676 61.736C223.785 60.712 224.34 59.368 224.34 57.704C224.34 56.2107 223.892 55.0587 222.996 54.248C222.143 53.3947 220.969 52.584 219.476 51.816L214.868 49.384C212.137 47.9333 210.324 46.4827 209.428 45.032C208.532 43.5813 208.084 42.1307 208.084 40.68C208.084 38.76 208.596 37.096 209.62 35.688C210.687 34.2373 212.137 33.1067 213.972 32.296C215.807 31.4853 217.897 31.08 220.244 31.08C221.823 31.08 223.295 31.2507 224.66 31.592C226.068 31.9333 227.327 32.36 228.436 32.872V40.296H226.58C226.324 39.0587 225.897 37.928 225.3 36.904C224.703 35.88 223.892 35.048 222.868 34.408C221.887 33.768 220.628 33.448 219.092 33.448C217.172 33.448 215.7 33.9387 214.676 34.92C213.652 35.9013 213.14 37.1173 213.14 38.568C213.14 39.7627 213.503 40.808 214.228 41.704C214.996 42.6 216.233 43.496 217.94 44.392L222.164 46.568C224.553 47.7627 226.345 49 227.54 50.28C228.777 51.56 229.396 53.2667 229.396 55.4C229.396 57.6187 228.82 59.496 227.668 61.032C226.516 62.5253 225.001 63.6773 223.124 64.488C221.289 65.256 219.327 65.64 217.236 65.64ZM227.071 65V63.08L228.991 62.76C230.271 62.5467 231.124 62.2053 231.551 61.736C231.977 61.224 232.191 60.3067 232.191 58.984V39.912C232.191 38.5467 231.892 37.5867 231.295 37.032C230.697 36.4347 229.332 36.008 227.199 35.752V34.152L237.055 31.336H237.951V58.984C237.951 60.3067 238.164 61.224 238.591 61.736C239.017 62.2053 239.871 62.5467 241.151 62.76L243.071 63.08V65H227.071ZM234.431 26.408C233.364 26.408 232.468 26.0667 231.743 25.384C231.017 24.6587 230.655 23.7413 230.655 22.632C230.655 21.5227 231.017 20.6267 231.743 19.944C232.468 19.2613 233.364 18.92 234.431 18.92C235.455 18.92 236.329 19.2613 237.055 19.944C237.78 20.6267 238.143 21.5227 238.143 22.632C238.143 23.7413 237.78 24.6587 237.055 25.384C236.329 26.0667 235.455 26.408 234.431 26.408ZM251.397 81.448C247.771 81.448 244.848 80.7227 242.629 79.272C240.453 77.8213 239.365 75.944 239.365 73.64C239.365 72.744 239.6 71.72 240.069 70.568C240.581 69.4587 241.563 68.1787 243.013 66.728L246.533 63.208L248.965 63.592C247.515 65.256 246.384 66.6213 245.573 67.688C244.805 68.7973 244.421 69.9493 244.421 71.144C244.421 73.064 245.339 74.5147 247.173 75.496C249.051 76.52 251.611 77.032 254.853 77.032C258.437 77.032 261.232 76.3493 263.237 74.984C265.285 73.6187 266.309 71.8267 266.309 69.608C266.309 68.2 265.84 67.176 264.901 66.536C263.963 65.896 262.256 65.4907 259.781 65.32L247.429 64.424C245.467 64.2533 243.867 63.7627 242.629 62.952C241.435 62.0987 240.837 61.0107 240.837 59.688C240.837 58.5787 241.221 57.6613 241.989 56.936C242.757 56.2107 243.739 55.2933 244.933 54.184L246.917 52.264H249.669L247.749 54.44C247.152 55.1227 246.747 55.6347 246.533 55.976C246.363 56.2747 246.277 56.5947 246.277 56.936C246.277 57.4907 246.491 57.9387 246.917 58.28C247.387 58.6213 248.133 58.8347 249.157 58.92L261.381 59.944C266.843 60.3707 269.573 62.824 269.573 67.304C269.573 69.9493 268.741 72.3387 267.077 74.472C265.456 76.6053 263.28 78.2907 260.549 79.528C257.819 80.808 254.768 81.448 251.397 81.448ZM252.613 53.736C250.224 53.736 248.091 53.2667 246.213 52.328C244.336 51.3467 242.864 50.0027 241.797 48.296C240.731 46.5893 240.197 44.648 240.197 42.472C240.197 40.2533 240.731 38.2907 241.797 36.584C242.907 34.8773 244.421 33.5333 246.341 32.552C248.261 31.5707 250.437 31.08 252.869 31.08L255.493 31.272C258.395 31.784 260.741 33.0213 262.533 34.984C264.368 36.9467 265.285 39.3573 265.285 42.216C265.285 44.4347 264.731 46.4187 263.621 48.168C262.555 49.8747 261.061 51.24 259.141 52.264C257.221 53.2453 255.045 53.736 252.613 53.736ZM253.253 51.24C255.301 51.24 256.88 50.5573 257.989 49.192C259.099 47.784 259.653 45.7787 259.653 43.176C259.653 41.2133 259.355 39.528 258.757 38.12C258.16 36.6693 257.307 35.56 256.197 34.792C255.088 33.9813 253.765 33.576 252.229 33.576C250.181 33.576 248.603 34.28 247.493 35.688C246.384 37.0533 245.829 39.0373 245.829 41.64C245.829 43.6027 246.128 45.3093 246.725 46.76C247.323 48.168 248.176 49.2773 249.285 50.088C250.437 50.856 251.76 51.24 253.253 51.24ZM252.869 32.04V31.08L268.741 28.008H269.957V32.04H252.869ZM265.271 65V63.08L267.191 62.76C268.471 62.5467 269.324 62.2053 269.751 61.736C270.177 61.224 270.391 60.3067 270.391 58.984V39.912C270.391 38.5467 270.092 37.5867 269.495 37.032C268.897 36.4347 267.532 36.008 265.399 35.752V34.152L275.063 31.336H275.959V36.008H276.343C278.391 34.216 280.289 32.9573 282.039 32.232C283.788 31.464 285.836 31.08 288.183 31.08C291.212 31.08 293.58 31.848 295.287 33.384C297.036 34.8773 297.911 37.0107 297.911 39.784V58.984C297.911 60.3067 298.124 61.224 298.551 61.736C298.977 62.2053 299.831 62.5467 301.111 62.76L303.031 63.08V65H287.031V63.08L288.951 62.76C290.231 62.5467 291.084 62.2053 291.511 61.736C291.937 61.224 292.151 60.3067 292.151 58.984V41.704C292.151 40.1253 291.873 38.8453 291.319 37.864C290.764 36.8827 289.932 36.1573 288.823 35.688C287.756 35.176 286.369 34.92 284.663 34.92C282.999 34.92 281.505 35.2187 280.183 35.816C278.86 36.3707 277.516 37.2667 276.151 38.504V58.984C276.151 60.3067 276.364 61.224 276.791 61.736C277.217 62.2053 278.071 62.5467 279.351 62.76L281.271 63.08V65H265.271ZM298.808 65V63.08L300.728 62.76C302.008 62.5467 302.861 62.2053 303.288 61.736C303.715 61.224 303.928 60.3067 303.928 58.984V39.912C303.928 38.5467 303.629 37.5867 303.032 37.032C302.435 36.4347 301.069 36.008 298.936 35.752V34.152L308.792 31.336H309.688V58.984C309.688 60.3067 309.901 61.224 310.328 61.736C310.755 62.2053 311.608 62.5467 312.888 62.76L314.808 63.08V65H298.808ZM306.168 26.408C305.101 26.408 304.205 26.0667 303.48 25.384C302.755 24.6587 302.392 23.7413 302.392 22.632C302.392 21.5227 302.755 20.6267 303.48 19.944C304.205 19.2613 305.101 18.92 306.168 18.92C307.192 18.92 308.067 19.2613 308.792 19.944C309.517 20.6267 309.88 21.5227 309.88 22.632C309.88 23.7413 309.517 24.6587 308.792 25.384C308.067 26.0667 307.192 26.408 306.168 26.408ZM310.783 65V63.08L312.703 62.76C313.983 62.5467 314.836 62.2053 315.263 61.736C315.69 61.224 315.903 60.3067 315.903 58.984V39.912C315.903 38.5467 315.604 37.5867 315.007 37.032C314.41 36.4347 313.044 36.008 310.911 35.752V34.152L320.575 31.336H321.471V36.008H321.855C323.903 34.216 325.802 32.9573 327.551 32.232C329.3 31.464 331.348 31.08 333.695 31.08C336.724 31.08 339.092 31.848 340.799 33.384C342.548 34.8773 343.423 37.0107 343.423 39.784V58.984C343.423 60.3067 343.636 61.224 344.063 61.736C344.49 62.2053 345.343 62.5467 346.623 62.76L348.543 63.08V65H332.543V63.08L334.463 62.76C335.743 62.5467 336.596 62.2053 337.023 61.736C337.45 61.224 337.663 60.3067 337.663 58.984V41.704C337.663 40.1253 337.386 38.8453 336.831 37.864C336.276 36.8827 335.444 36.1573 334.335 35.688C333.268 35.176 331.882 34.92 330.175 34.92C328.511 34.92 327.018 35.2187 325.695 35.816C324.372 36.3707 323.028 37.2667 321.663 38.504V58.984C321.663 60.3067 321.876 61.224 322.303 61.736C322.73 62.2053 323.583 62.5467 324.863 62.76L326.783 63.08V65H310.783ZM356.673 81.448C353.046 81.448 350.123 80.7227 347.905 79.272C345.729 77.8213 344.641 75.944 344.641 73.64C344.641 72.744 344.875 71.72 345.345 70.568C345.857 69.4587 346.838 68.1787 348.289 66.728L351.809 63.208L354.241 63.592C352.79 65.256 351.659 66.6213 350.849 67.688C350.081 68.7973 349.697 69.9493 349.697 71.144C349.697 73.064 350.614 74.5147 352.449 75.496C354.326 76.52 356.886 77.032 360.129 77.032C363.713 77.032 366.507 76.3493 368.513 74.984C370.561 73.6187 371.585 71.8267 371.585 69.608C371.585 68.2 371.115 67.176 370.177 66.536C369.238 65.896 367.531 65.4907 365.057 65.32L352.705 64.424C350.742 64.2533 349.142 63.7627 347.905 62.952C346.71 62.0987 346.113 61.0107 346.113 59.688C346.113 58.5787 346.497 57.6613 347.265 56.936C348.033 56.2107 349.014 55.2933 350.209 54.184L352.193 52.264H354.945L353.025 54.44C352.427 55.1227 352.022 55.6347 351.809 55.976C351.638 56.2747 351.553 56.5947 351.553 56.936C351.553 57.4907 351.766 57.9387 352.193 58.28C352.662 58.6213 353.409 58.8347 354.433 58.92L366.657 59.944C372.118 60.3707 374.849 62.824 374.849 67.304C374.849 69.9493 374.017 72.3387 372.353 74.472C370.731 76.6053 368.555 78.2907 365.825 79.528C363.094 80.808 360.043 81.448 356.673 81.448ZM357.889 53.736C355.499 53.736 353.366 53.2667 351.489 52.328C349.611 51.3467 348.139 50.0027 347.073 48.296C346.006 46.5893 345.473 44.648 345.473 42.472C345.473 40.2533 346.006 38.2907 347.073 36.584C348.182 34.8773 349.697 33.5333 351.617 32.552C353.537 31.5707 355.713 31.08 358.145 31.08L360.769 31.272C363.67 31.784 366.017 33.0213 367.809 34.984C369.643 36.9467 370.561 39.3573 370.561 42.216C370.561 44.4347 370.006 46.4187 368.897 48.168C367.83 49.8747 366.337 51.24 364.417 52.264C362.497 53.2453 360.321 53.736 357.889 53.736ZM358.529 51.24C360.577 51.24 362.155 50.5573 363.265 49.192C364.374 47.784 364.929 45.7787 364.929 43.176C364.929 41.2133 364.63 39.528 364.033 38.12C363.435 36.6693 362.582 35.56 361.473 34.792C360.363 33.9813 359.041 33.576 357.505 33.576C355.457 33.576 353.878 34.28 352.769 35.688C351.659 37.0533 351.105 39.0373 351.105 41.64C351.105 43.6027 351.403 45.3093 352.001 46.76C352.598 48.168 353.451 49.2773 354.561 50.088C355.713 50.856 357.035 51.24 358.529 51.24ZM358.145 32.04V31.08L374.017 28.008H375.233V32.04H358.145Z" fill="black"/>
<path d="M48.2 221.536V210.144H36.68V195.68H50.76V207.2H82.76V187.36H48.2V175.968H36.68V150.368H48.2V138.976H85.32V150.368H96.968V164.704H82.76V153.44H50.76V173.152H85.32V184.288H96.968V210.144H85.32V221.536H48.2ZM130.345 221.536V210.144H118.825V175.968H107.305V161.632H118.825V138.976H132.777V161.632H167.593V175.968H132.777V207.2H165.033V195.68H179.113V210.144H167.593V221.536H130.345ZM202.2 221.536V210.144H190.68V173.152H202.2V161.632H239.32V173.152H250.968V207.2H262.488V221.536H248.408V210.144H239.32V221.536H202.2ZM204.76 207.2H236.76V175.968H204.76V207.2ZM277.93 221.536V173.152H289.45V161.632H326.57V173.152H338.218V187.36H324.01V175.968H292.01V221.536H277.93ZM376.72 221.536V210.144H365.2V175.968H353.68V161.632H365.2V138.976H379.152V161.632H413.968V175.968H379.152V207.2H411.408V195.68H425.488V210.144H413.968V221.536H376.72ZM448.575 221.536V210.144H437.055V173.152H448.575V161.632H485.695V173.152H497.343V187.36H483.135V175.968H451.135V184.288H474.175V198.752H451.135V207.2H483.135V195.552H497.343V210.016H485.695V221.536H448.575ZM512.805 221.536V173.152H524.325V161.632H561.445V173.152H573.093V187.36H558.885V175.968H526.885V221.536H512.805ZM36.68 375.536V304.368H48.2V292.976H85.32V304.368H96.968V341.36H85.32V352.752H50.76V375.536H36.68ZM50.76 338.288H82.76V307.44H50.76V338.288ZM120.075 375.536V364.144H108.555V327.152H120.075V315.632H157.195V327.152H168.843V361.2H180.363V375.536H166.283V364.144H157.195V375.536H120.075ZM122.635 361.2H154.635V329.968H122.635V361.2ZM200.95 375.536V364.144H189.43V327.152H200.95V315.632H238.07V327.152H249.718V341.36H235.51V329.968H203.51V361.2H235.51V349.68H249.718V364.144H238.07V375.536H200.95ZM262.68 375.536V292.976H276.76V338.288H285.72V327.152H308.76V315.632H322.968V329.968H311.32V341.36H288.152V349.68H311.32V361.2H322.968V375.536H308.76V364.144H285.72V352.752H276.76V375.536H262.68Z" fill="black"/>
<rect x="14" y="125" width="605" height="109" fill="#F06B6B" fill-opacity="0.6"/>
<rect x="12" y="287" width="313" height="109" fill="#F06B6B" fill-opacity="0.6"/>
<rect x="12" y="149" width="3" height="95" fill="#D91A1A"/>
<circle cx="13.5" cy="140.5" r="13.5" fill="#D91A1A"/>
<rect x="321" y="278" width="3" height="129" fill="#D91A1A"/>
<circle cx="324" cy="412" r="13" fill="#D91A1A"/>
</svg>
